<?xml version="1.0" standalone="no"?>
<!DOCTYPE svg PUBLIC "-//W3C//DTD SVG 20010904//EN"
 "http://www.w3.org/TR/2001/REC-SVG-20010904/DTD/svg10.dtd">
<svg version="1.0" xmlns="http://www.w3.org/2000/svg"
 width="512.000000pt" height="512.000000pt" viewBox="0 0 512.000000 512.000000"
 preserveAspectRatio="xMidYMid meet">

<g transform="translate(0.000000,512.000000) scale(0.100000,-0.100000)"
fill="#000000" stroke="none">
<path d="M10 2560 l0 -2550 2550 0 2550 0 0 2550 0 2550 -2550 0 -2550 0 0
-2550z m1971 906 l582 -784 32 41 c18 23 274 368 570 767 295 399 545 733 554
743 15 15 32 17 110 15 l92 -3 -621 -834 c-342 -459 -624 -840 -627 -847 -2
-7 300 -418 671 -913 l676 -901 -103 0 -102 0 -630 842 c-571 763 -630 839
-642 822 -7 -10 -289 -388 -626 -839 l-613 -820 -102 -3 -103 -3 677 902 c547
730 675 906 667 919 -6 9 -288 388 -627 844 -339 455 -616 829 -616 832 0 2
45 4 99 4 l99 0 583 -784z"/>
</g>
</svg>
