<?xml version="1.0" standalone="no"?>
<!DOCTYPE svg PUBLIC "-//W3C//DTD SVG 20010904//EN"
 "http://www.w3.org/TR/2001/REC-SVG-20010904/DTD/svg10.dtd">
<svg version="1.0" xmlns="http://www.w3.org/2000/svg"
 width="512.000000pt" height="512.000000pt" viewBox="-100 -100 700.000000 700.000000"
 preserveAspectRatio="xMidYMid meet">

<g transform="translate(0.000000,512.000000) scale(0.100000,-0.100000)"
fill="#0a59ff" stroke="none">
<path d="M2350 5110 c-638 -61 -1196 -327 -1630 -776 -380 -394 -621 -893
-696 -1440 -21 -156 -24 -482 -5 -629 51 -405 191 -787 409 -1116 413 -619
1059 -1024 1798 -1125 156 -21 482 -24 629 -5 405 51 787 191 1116 409 619
413 1024 1059 1125 1798 24 175 24 493 0 668 -147 1075 -934 1928 -1997 2166
-208 47 -546 69 -749 50z m350 -750 c565 -50 1057 -345 1370 -820 427 -650
378 -1516 -120 -2126 -367 -449 -962 -702 -1533 -654 -328 28 -599 122 -871
303 -149 100 -367 312 -466 455 -128 183 -224 389 -275 591 -27 107 -56 290
-48 304 2 4 605 7 1339 7 l1334 0 0 145 0 145 -1340 0 -1339 0 4 28 c3 15 9
61 15 102 37 256 148 530 310 762 92 133 317 354 451 445 356 241 759 349
1169 313z"/>
</g>
</svg>
